<svg width="280" height="266" viewBox="0 0 280 266" fill="none" xmlns="http://www.w3.org/2000/svg">
<g clip-path="url(#clip0)">
<path fill-rule="evenodd" clip-rule="evenodd" d="M75.3079 149.37L148.88 29.7294L118.44 0C118.44 0 76.5371 150.46 75.3079 149.37Z" fill="#979797"/>
<path fill-rule="evenodd" clip-rule="evenodd" d="M237.084 150.179L265.777 184.797H280V202.43H231.951V186.761H242.012L224.295 162.87L206.514 186.761H216.65V202.43H168.699V184.797H182.965L211.334 150.179L183.137 116.36H169.507V98.7383H216.65V113.393H206.407L224.295 137.176L242.012 113.393H231.143V98.7383H278.253V116.36H264.731L237.084 150.179Z" fill="white"/>
<path fill-rule="evenodd" clip-rule="evenodd" d="M168.321 202.43C165.798 202.57 153.344 202.311 152.082 202.43C143.521 203.239 132.037 198.858 118.321 189.168C104.745 198.027 90.4902 202.462 75.5882 202.462C65.5493 202.462 55.8986 200.585 46.6145 196.808C37.3305 193.063 29.1894 187.732 22.2452 180.815C14.7187 173.359 9.03608 164.564 5.18658 154.442C1.72527 145.464 0 136.205 0 126.547C0 106.152 7.09516 88.6163 21.307 73.9836C28.4022 66.6673 36.608 61.0127 45.9244 57.0848C55.2517 53.1568 64.9994 51.1821 75.1893 51.1821C85.3791 51.1821 95.17 53.1676 104.53 57.1603C113.857 61.1206 122.127 66.7752 129.298 74.0915C143.445 88.6487 150.497 106.227 150.497 126.763C150.497 146.176 144.124 162.783 131.379 176.585C138.647 181.517 145.526 184.258 152.082 184.797L168.321 202.43ZM114.827 162.136C123.971 151.981 128.543 140.381 128.543 127.302C128.543 112.853 123.756 100.497 114.213 90.127C103.451 78.6022 90.2853 72.8398 74.6609 72.8398C60.8372 72.8398 48.8466 77.5231 38.7322 86.8897C33.3731 91.7889 29.1894 97.5513 26.2025 104.145C23.2156 110.706 21.7384 117.364 21.7384 124.141C21.7384 127.486 22.4932 131.349 23.9704 135.633C33.4378 132.396 42.8297 130.766 52.1246 130.766C66.0238 130.766 79.3407 134.834 92.0861 143.014C98.1677 146.942 105.759 153.32 114.827 162.136ZM101.338 173.628C92.2263 165.125 85.0988 159.363 80.0631 156.406C70.7791 150.859 61.0205 148.086 50.7228 148.086C43.164 148.086 35.7454 149.705 28.51 152.953C32.6507 160.55 38.1931 166.711 45.1373 171.503C54.2812 177.697 64.3956 180.794 75.5235 180.794C84.592 180.804 93.1967 178.42 101.338 173.628Z" fill="white"/>
<path d="M250.854 184.797H149.246V202.419H250.854V184.797Z" fill="white"/>
<path d="M31.7665 121.648H11.7749V128.77H31.7665V121.648Z" fill="white"/>
<path d="M138.539 123.741H118.547V130.863H138.539V123.741Z" fill="white"/>
<path d="M102.381 68.7987L92.3854 86.1245L98.5485 89.6856L108.544 72.3598L102.381 68.7987Z" fill="white"/>
<path d="M129.323 96.0572L112.01 106.061L115.569 112.228L132.881 102.225L129.323 96.0572Z" fill="white"/>
<path d="M45.5801 69.7744L39.4171 73.3354L49.4128 90.6612L55.5759 87.1002L45.5801 69.7744Z" fill="white"/>
<path d="M21.7674 91.3026L18.2091 97.4703L35.5217 107.474L39.0801 101.306L21.7674 91.3026Z" fill="white"/>
<path fill-rule="evenodd" clip-rule="evenodd" d="M75.254 149.327L163.534 40.0996L137.137 6.71204C137.137 6.71204 76.3323 150.568 75.254 149.327Z" fill="white"/>
<path fill-rule="evenodd" clip-rule="evenodd" d="M47.4987 258.813H52.5667V265.935C51.7796 265.978 51.1865 266 50.7875 266C45.8382 266 41.2339 264.478 36.9423 261.457C32.7046 264.23 28.2512 265.612 23.593 265.612C20.4552 265.612 17.4468 265.029 14.5462 263.842C11.6456 262.676 9.10079 261.004 6.93342 258.846C4.58275 256.515 2.80357 253.774 1.60666 250.612C0.528373 247.806 -0.0107727 244.914 -0.0107727 241.904C-0.0107727 235.537 2.19973 230.055 6.64229 225.49C8.85278 223.203 11.4191 221.444 14.3305 220.213C17.2419 218.983 20.2935 218.368 23.4744 218.368C26.6554 218.368 29.7177 218.983 32.6399 220.235C35.5513 221.476 38.1392 223.235 40.3712 225.523C44.7922 230.066 46.992 235.558 46.992 241.968C46.992 248.033 44.9971 253.223 41.0182 257.529C43.2934 259.072 45.8058 258.64 47.8546 258.813H47.4987ZM35.864 253.018C38.7215 249.846 40.1448 246.22 40.1448 242.141C40.1448 237.63 38.646 233.767 35.6699 230.53C32.3056 226.926 28.1973 225.123 23.3127 225.123C18.9995 225.123 15.2471 226.591 12.0877 229.515C10.4163 231.048 9.11157 232.85 8.17346 234.9C7.23535 236.95 6.78246 239.033 6.78246 241.148C6.78246 242.195 7.01969 243.403 7.48335 244.742C10.4379 243.727 13.3708 243.22 16.2714 243.22C20.6062 243.22 24.7684 244.493 28.7473 247.04C30.6558 248.27 33.0389 250.256 35.864 253.018ZM31.6479 256.601C28.8012 253.946 26.5799 252.144 25.0056 251.227C22.105 249.49 19.0534 248.626 15.8401 248.626C13.4787 248.626 11.1603 249.134 8.9067 250.148C10.2006 252.522 11.9367 254.443 14.1041 255.943C16.9615 257.874 20.1209 258.846 23.593 258.846C26.4182 258.846 29.1139 258.101 31.6479 256.601ZM86.4035 231.112V258.802H91.3205V264.478H80.8072V259.59C79.5564 261.425 78.0144 262.806 76.2137 263.755C74.4021 264.705 72.3857 265.169 70.1752 265.169C67.8893 265.169 65.765 264.608 63.8241 263.496C59.6511 261.101 57.5592 257.184 57.5592 251.745V236.778H52.6422V231.102H63.6192V249.759C63.6192 252.77 64.374 255.079 65.8944 256.687C67.5011 258.328 69.4851 259.148 71.8574 259.148C74.6717 259.148 76.9146 258.079 78.6183 255.921C79.772 254.443 80.3651 252.392 80.3651 249.716V236.767H75.4481V231.091H86.4035V231.112ZM130.905 236.799V258.813H135.822V264.489H124.845V258.889C123.874 260.227 122.99 261.252 122.181 261.964C119.647 264.09 116.52 265.158 112.789 265.158C108.347 265.158 104.508 263.615 101.252 260.54C97.6285 257.108 95.817 252.921 95.817 247.979C95.817 245.702 96.2591 243.501 97.1217 241.353C97.9844 239.195 99.2136 237.296 100.788 235.645C104.131 232.192 108.196 230.465 112.973 230.465C117.965 230.465 121.912 232.612 124.834 236.896V231.112H135.811V236.799H130.905ZM113.253 236.476C110.169 236.476 107.527 237.587 105.317 239.821C103.106 242.044 101.985 244.731 101.985 247.839C101.985 250.957 103.095 253.623 105.317 255.835C107.506 258.036 110.18 259.137 113.361 259.137C116.52 259.137 119.227 258.036 121.491 255.813C123.777 253.59 124.92 250.893 124.92 247.731C124.92 244.526 123.799 241.86 121.556 239.735C119.227 237.555 116.455 236.476 113.253 236.476ZM151.532 231.112V237.274C153.559 233.184 157.032 231.005 161.981 230.746V236.983C159.123 237.102 156.762 238.019 154.897 239.713C152.988 241.515 152.018 244.04 151.996 247.321V258.802H156.913V264.478H141.03V258.802H145.947V236.778H141.03V231.102H151.532V231.112ZM199.117 219.48V258.802H204.002V264.478H193.057V258.511C192.022 259.968 191.062 261.058 190.189 261.813C187.601 264.025 184.474 265.148 180.829 265.148C178.705 265.148 176.603 264.716 174.521 263.863C172.451 263.011 170.618 261.802 169.044 260.259C165.475 256.86 163.706 252.673 163.706 247.698C163.706 242.929 165.388 238.86 168.774 235.504C170.381 233.929 172.225 232.688 174.306 231.803C176.398 230.918 178.511 230.465 180.668 230.465C185.779 230.465 189.909 232.688 193.047 237.155V225.145H188.108V219.469H199.117V219.48ZM181.401 236.098C178.285 236.098 175.589 237.242 173.303 239.529C171.017 241.817 169.874 244.558 169.874 247.763C169.874 250.946 171.017 253.633 173.303 255.835C175.589 258.036 178.317 259.137 181.498 259.137C184.722 259.137 187.483 258.025 189.758 255.781C192.065 253.558 193.219 250.871 193.219 247.731C193.219 244.461 192.065 241.709 189.758 239.497C187.439 237.242 184.657 236.098 181.401 236.098ZM235.326 254.853H241.688C240.588 257.227 239.176 259.212 237.472 260.799C234.129 263.853 230.258 265.374 225.848 265.374C223.541 265.374 221.298 264.921 219.098 264.036C216.92 263.151 215.011 261.889 213.383 260.27C209.997 256.903 208.315 252.77 208.315 247.839C208.315 243.274 209.836 239.314 212.855 235.947C216.305 232.148 220.554 230.238 225.6 230.238C229.45 230.238 232.911 231.382 235.984 233.67C239.079 235.958 241.128 238.871 242.13 242.4C242.68 244.31 242.95 246.123 242.95 247.849C242.95 248.335 242.907 249.058 242.81 250.018H214.246C214.753 252.716 215.788 254.842 217.351 256.407C219.702 258.781 222.505 259.957 225.751 259.957C229.795 259.957 232.976 258.263 235.326 254.853ZM237.375 245.292C236.825 242.896 235.79 240.911 234.28 239.324C231.908 236.864 229.018 235.634 225.611 235.634C222.204 235.634 219.324 236.983 216.952 239.681C215.626 241.181 214.731 243.047 214.246 245.281H237.375V245.292ZM266.187 247.666L275.417 258.802H279.989V264.478H264.526V259.439H267.761L262.057 251.756L256.331 259.439H259.588V264.478H244.158V258.802H248.74L257.873 247.666L248.805 236.789H244.416V231.112H259.588V235.828H256.288L262.046 243.479L267.751 235.828H264.257V231.112H279.418V236.789H275.061L266.187 247.666Z" fill="white"/>
<path d="M280 258.813H51.4561V265.935H280V258.813Z" fill="white"/>
</g>
<defs>
<clipPath id="clip0">
<rect width="280" height="266" fill="white"/>
</clipPath>
</defs>
</svg>
